<svg width="40" height="40" viewBox="0 0 40 40" fill="none" xmlns="http://www.w3.org/2000/svg">
<rect width="40" height="40" rx="10" fill="#282828"/>
<path d="M15 17V15H29V17H15ZM15 21V19H29V21H15ZM15 25V23H29V25H15ZM12 17C11.7167 17 11.4792 16.9042 11.2875 16.7125C11.0958 16.5208 11 16.2833 11 16C11 15.7167 11.0958 15.4792 11.2875 15.2875C11.4792 15.0958 11.7167 15 12 15C12.2833 15 12.5208 15.0958 12.7125 15.2875C12.9042 15.4792 13 15.7167 13 16C13 16.2833 12.9042 16.5208 12.7125 16.7125C12.5208 16.9042 12.2833 17 12 17ZM12 21C11.7167 21 11.4792 20.9042 11.2875 20.7125C11.0958 20.5208 11 20.2833 11 20C11 19.7167 11.0958 19.4792 11.2875 19.2875C11.4792 19.0958 11.7167 19 12 19C12.2833 19 12.5208 19.0958 12.7125 19.2875C12.9042 19.4792 13 19.7167 13 20C13 20.2833 12.9042 20.5208 12.7125 20.7125C12.5208 20.9042 12.2833 21 12 21ZM12 25C11.7167 25 11.4792 24.9042 11.2875 24.7125C11.0958 24.5208 11 24.2833 11 24C11 23.7167 11.0958 23.4792 11.2875 23.2875C11.4792 23.0958 11.7167 23 12 23C12.2833 23 12.5208 23.0958 12.7125 23.2875C12.9042 23.4792 13 23.7167 13 24C13 24.2833 12.9042 24.5208 12.7125 24.7125C12.5208 24.9042 12.2833 25 12 25Z" fill="#D5D5D5"/>
</svg>
