<svg width="26" height="26" viewBox="0 0 26 26" fill="none" xmlns="http://www.w3.org/2000/svg">
<path d="M24.25 13.9875C24.0534 16.1153 23.2548 18.143 21.9478 19.8335C20.6408 21.524 18.8794 22.8072 16.8696 23.5332C14.8599 24.2591 12.685 24.3977 10.5994 23.9326C8.51377 23.4676 6.60374 22.4182 5.09278 20.9072C3.58182 19.3963 2.53242 17.4862 2.06738 15.4006C1.60234 13.315 1.74089 11.1401 2.46682 9.13037C3.19275 7.12064 4.47604 5.35921 6.16652 4.05219C7.85699 2.74517 9.88474 1.94663 12.0125 1.75C10.7668 3.43533 10.1673 5.51181 10.3232 7.60177C10.479 9.69172 11.3798 11.6563 12.8618 13.1382C14.3437 14.6202 16.3083 15.521 18.3982 15.6768C20.4882 15.8327 22.5647 15.2332 24.25 13.9875Z" stroke="#505050" stroke-width="2" stroke-linecap="round" stroke-linejoin="round"/>
</svg>
