<svg width="38" height="80" viewBox="0 0 38 80" fill="none" xmlns="http://www.w3.org/2000/svg">
<g clip-path="url(#clip0_2_18)">
<path d="M13.4297 27.0856C9.5 27.1273 4.34051 38.2905 0.5 40.7951C1.01206 42.2451 0.756041 45.8043 0.756041 45.8043H6.90085C7.92498 42.5088 13.4297 40.2678 13.4297 40.2678H19.4465C20 48.1264 14.0955 60.3781 15 59.308C21.5 56.0968 30.5 56.308 28.6637 49.2317C30.896 50.1756 33 52.6264 33.4003 53.3181C32.3762 48.4407 37.8809 41.0587 34.4245 36.1813C33.7844 35.1268 37.6249 38.0268 37.4969 37.7632C36.5341 33.4969 29.7 28.1444 25.4633 26.6902C25.0792 26.5583 30.0719 26.5583 29.5598 26.2947C26.9995 25.1083 19.5745 23.3946 17.1422 23.9219C15.6882 23.2457 16.7581 21.4173 16.1181 20.6264C14.8571 21.4336 13.4297 23.3946 13.4297 23.3946C13.4297 23.3946 13.9418 26.1629 13.4297 27.0856Z" fill="url(#paint0_linear_2_18)"/>
</g>
<defs>
<linearGradient id="paint0_linear_2_18" x1="1" y1="40" x2="23" y2="59" gradientUnits="userSpaceOnUse">
<stop stop-color="#BF1DDF"/>
<stop offset="1" stop-color="#6A107C"/>
</linearGradient>
<clipPath id="clip0_2_18">
<rect x="0.5" width="37" height="80" rx="10" fill="white"/>
</clipPath>
</defs>
</svg>
