<svg xmlns="http://www.w3.org/2000/svg" width="40" height="40" viewBox="0 0 40 40" fill="none">
<path d="M13.9781 6.6681C9.72973 6.71113 4.1519 18.2352 0 20.8208C0.553575 22.3177 0.276802 25.992 0.276802 25.992H6.91984C8.027 22.5899 13.9781 20.2765 13.9781 20.2765H20.4827C21.0811 28.3891 14.6978 41.0369 15.6757 39.9322C22.7027 36.6172 32.4324 36.8352 30.4473 29.5301C32.8605 30.5046 35.1351 33.0346 35.5679 33.7487C34.4608 28.7136 40.4118 21.093 36.6751 16.0579C35.9831 14.9692 40.135 17.963 39.9966 17.6909C38.9558 13.2866 31.5676 7.76109 26.9873 6.25984C26.5721 6.12376 31.9696 6.12376 31.416 5.85159C28.6481 4.62684 20.6211 2.85775 17.9916 3.40209C16.4196 2.70402 17.5764 0.816501 16.8844 0C15.5212 0.833283 13.9781 2.85775 13.9781 2.85775C13.9781 2.85775 14.5317 5.71551 13.9781 6.6681Z" fill="url(#paint0_linear_89_33)"/>
<defs>
<linearGradient id="paint0_linear_89_33" x1="0.540541" y1="20" x2="23.381" y2="40.6573" gradientUnits="userSpaceOnUse">
<stop stop-color="#F93CF3"/>
<stop offset="0.413462" stop-color="#FF20F8"/>
<stop offset="1" stop-color="#A1089C"/>
</linearGradient>
</defs>
</svg>